<svg width="936" height="144" viewBox="0 0 927 152" fill="none" xmlns="http://www.w3.org/2000/svg">
<path fill-rule="evenodd" clip-rule="evenodd" d="M142.41 4.44531H26.0039L0.0273438 148H30.0078L51.5898 29.1523H108.035L86.3555 148H116.434L142.41 4.44531ZM178.539 148L187.523 98H216.332C235.733 98 250.284 93.3776 259.984 84.1328C269.685 74.888 274.535 62.0951 274.535 45.7539C274.535 40.2852 273.624 35.0768 271.801 30.1289C270.043 25.1159 267.146 20.7214 263.109 16.9453C259.138 13.1042 253.93 10.0768 247.484 7.86328C241.104 5.58464 233.259 4.44531 223.949 4.44531H174.535L148.559 148H178.539ZM239.379 66.0664C235.147 70.819 228.279 73.1953 218.773 73.1953H192.113L200.121 29.1523H225.316C233.324 29.1523 238.728 31.0729 241.527 34.9141C244.327 38.7552 245.727 43.3776 245.727 48.7812C245.727 55.487 243.611 61.2487 239.379 66.0664ZM428.242 95.6562C431.367 85.3047 432.93 75.0182 432.93 64.7969C432.93 57.8958 431.888 50.7018 429.805 43.2148C427.786 35.6628 424.336 28.7617 419.453 22.5117C414.57 16.1966 408.092 11.0208 400.02 6.98438C392.012 2.88281 382.051 0.832031 370.137 0.832031C357.116 0.832031 345.788 3.4362 336.152 8.64453C326.582 13.8529 318.639 20.5911 312.324 28.8594C306.009 37.1276 301.289 46.4375 298.164 56.7891C295.104 67.0755 293.574 77.362 293.574 87.6484C293.574 94.5495 294.583 101.776 296.602 109.328C298.685 116.815 302.135 123.716 306.953 130.031C311.836 136.281 318.281 141.457 326.289 145.559C334.362 149.595 344.388 151.613 356.367 151.613C369.388 151.613 380.684 149.009 390.254 143.801C399.824 138.592 407.767 131.854 414.082 123.586C420.462 115.318 425.182 106.008 428.242 95.6562ZM379.902 120.07C374.043 124.562 366.523 126.809 357.344 126.809C352.852 126.809 348.555 126.092 344.453 124.66C340.417 123.163 336.836 120.884 333.711 117.824C330.586 114.699 328.112 110.76 326.289 106.008C324.466 101.255 323.555 95.5911 323.555 89.0156C323.555 83.3516 324.206 76.8737 325.508 69.582C326.81 62.2253 329.154 55.3242 332.539 48.8789C335.99 42.3685 340.645 36.8672 346.504 32.375C352.428 27.8828 359.98 25.6367 369.16 25.6367C373.652 25.6367 377.917 26.3854 381.953 27.8828C386.055 29.3151 389.668 31.5612 392.793 34.6211C395.918 37.681 398.392 41.5872 400.215 46.3398C402.038 51.0924 402.949 56.7891 402.949 63.4297C402.949 69.0938 402.298 75.5716 400.996 82.8633C399.694 90.1549 397.318 97.056 393.867 103.566C390.482 110.077 385.827 115.578 379.902 120.07ZM541.889 112.036L547.082 83.8398H603.234L600.184 100.405L631.305 94.1956L647.668 4.44531H617.688L607.629 59.0352H551.477L561.438 4.44531H531.457L505.285 148H535.266L541.297 115.251L512 118L541.889 112.036ZM598.437 109.89L591.418 148H621.496L628.966 107.025L598.437 109.89ZM670.895 103.091L647.371 148H679.207L692.977 119.777H743.562L746.199 148H775.789L768.943 93.8909L670.895 103.091ZM796.872 91.2702C797.162 97.0672 798.141 103.086 799.809 109.328C801.892 116.815 805.375 123.716 810.258 130.031C815.141 136.281 821.586 141.457 829.594 145.559C837.667 149.595 847.66 151.613 859.574 151.613C877.087 151.613 891.247 146.991 902.055 137.746C912.927 128.436 920.382 115.513 924.418 98.9766H893.949C891.54 108.742 887.276 115.643 881.156 119.68C875.036 123.651 868.233 125.637 860.746 125.637C854.561 125.637 849.288 124.66 844.926 122.707C840.629 120.754 837.113 118.117 834.379 114.797C831.71 111.477 829.757 107.603 828.52 103.176C827.348 98.7487 826.762 94.0286 826.762 89.0156C826.762 88.8331 826.762 88.6497 826.764 88.4655L796.872 91.2702ZM833.368 53.8791L800.342 60.4686C800.663 59.2421 801.006 58.0156 801.371 56.7891C804.496 46.4375 809.216 37.1276 815.531 28.8594C821.911 20.5911 829.887 13.8529 839.457 8.64453C849.092 3.4362 860.388 0.832031 873.344 0.832031C881.482 0.832031 888.936 1.9388 895.707 4.15234C902.543 6.36589 908.402 9.65365 913.285 14.0156C918.168 18.3776 921.977 23.7812 924.711 30.2266C925.4 31.8513 926.003 33.5402 926.518 35.2933L896.913 41.2002C895.644 37.9121 893.744 35.1006 891.215 32.7656C886.137 28.013 879.854 25.6367 872.367 25.6367C863.188 25.6367 855.635 27.8828 849.711 32.375C843.852 36.8672 839.197 42.3685 835.746 48.8789C834.886 50.5162 834.093 52.183 833.368 53.8791ZM765.591 67.4023L739.063 72.6953L735.359 34.4258H734.969L713.648 77.7662L680.719 84.3364L722.566 4.44531H757.625L765.591 67.4023Z" fill="white"/>
</svg>
