<svg width="677" height="148" viewBox="0 0 677 148" fill="none" xmlns="http://www.w3.org/2000/svg">
<path fill-rule="evenodd" clip-rule="evenodd" d="M52.068 60.3424C55.1085 60.6591 57.9906 60.8175 60.7144 60.8175C68.1255 60.8175 74.2065 58.8855 78.9572 55.0216C83.7713 51.0943 86.1783 45.4884 86.1783 38.204C86.1783 32.6298 84.5314 28.5758 81.2375 26.0421C78.007 23.5084 73.5413 22.2415 67.8405 22.2415C63.9132 22.2415 60.461 22.8749 57.4839 24.1418C54.5701 25.3453 52.068 26.9922 49.9777 29.0826C47.8874 31.1729 46.1455 33.5799 44.7519 36.3037C43.3584 38.9641 42.2499 41.7512 41.4264 44.665H15.1073C16.0575 38.9007 17.7994 33.3582 20.3331 28.0374C22.8669 22.7166 26.3507 18.0292 30.7847 13.9752C35.2188 9.85793 40.6663 6.59576 47.1273 4.18873C53.6516 1.71834 61.2845 0.483154 70.0258 0.483154C77.9437 0.483154 84.6897 1.49664 90.2639 3.52362C95.8381 5.48726 100.399 8.116 103.946 11.4098C107.493 14.6403 110.09 18.3459 111.737 22.5266C113.384 26.7072 114.208 30.9512 114.208 35.2585C114.208 43.5565 111.959 50.8092 107.462 57.0169C102.964 63.2245 95.9965 67.4052 86.5584 69.5588V69.9389C92.6393 72.0925 97.39 75.323 100.811 79.6304C104.294 83.8744 106.036 90.0503 106.036 98.1582C106.036 103.479 105.023 109.022 102.996 114.786C101.032 120.55 97.8018 125.839 93.3044 130.653C88.8704 135.404 83.0745 139.363 75.9167 142.53C68.8223 145.634 60.1759 147.186 49.9777 147.186C41.7431 147.186 34.4903 146.109 28.2194 143.955C22.0117 141.865 16.8176 138.92 12.6369 135.119C8.4563 131.255 5.28915 126.694 3.13548 121.437C1.04516 116.116 0 110.288 0 103.954V101.294H26.7941C27.6176 110.162 30.0246 116.211 34.0152 119.442C38.0059 122.609 43.8968 124.192 51.688 124.192C56.0586 124.192 59.8276 123.432 62.9947 121.912C66.1619 120.392 68.7589 118.46 70.7859 116.116C72.8762 113.709 74.3965 111.017 75.3466 108.04C76.3601 105.063 76.8669 102.149 76.8669 99.2984C76.8669 95.6878 76.2968 92.7107 75.1566 90.367C74.0164 88.0233 72.4962 86.1864 70.5959 84.8562C68.7589 83.4626 66.6053 82.4808 64.1349 81.9107C61.7279 81.3406 59.2258 81.0556 56.6287 81.0556H48.6475L52.068 60.3424ZM238.92 118.592L242.094 143.67H213.304L210.739 116.211H161.521L148.124 143.67H117.149L190.311 3.9987H224.421L238.838 117.941L232.535 119.183L238.92 118.592ZM262.027 116.451L257.102 143.67H286.272L291.714 113.701L262.027 116.451ZM349.775 96.0866L362.188 28.0374H307.27L292.877 107.296L262.605 113.259L282.376 3.9987H395.633L380.049 90.1226L349.775 96.0866ZM347.505 108.532L341.095 143.67H370.36L377.216 105.779L347.505 108.532ZM409.118 102.824L401.616 143.67H431.545L467.365 97.4275L409.118 102.824ZM502.545 65.9907L506.702 47.1353H506.322L489.766 68.508L455.948 75.1703L508.982 3.9987H540.147L529.825 60.6164L502.545 65.9907ZM496.203 94.7558L485.418 143.67H514.683L524.071 92.174L496.203 94.7558ZM551.699 89.6144C552.046 94.9028 552.976 100.38 554.49 106.044C556.517 113.329 559.906 120.043 564.657 126.188C569.408 132.268 575.679 137.304 583.47 141.295C591.324 145.222 601.048 147.186 612.639 147.186C629.679 147.186 643.456 142.688 653.971 133.694C664.549 124.636 671.802 112.062 675.729 95.9729H646.084C643.741 105.474 639.592 112.189 633.638 116.116C627.683 119.98 621.064 121.912 613.779 121.912C607.762 121.912 602.631 120.962 598.387 119.061C594.206 117.161 590.786 114.596 588.126 111.365C585.528 108.135 583.628 104.366 582.425 100.059C581.335 95.9414 580.766 91.5639 580.718 86.926L551.699 89.6144ZM647.881 37.359C646.731 35.1697 645.246 33.2343 643.424 31.5529C638.483 26.9289 632.371 24.6169 625.086 24.6169C616.155 24.6169 608.807 26.8022 603.043 31.1729C597.342 35.5436 592.813 40.8961 589.456 47.2304C589.139 47.833 588.832 48.4397 588.534 49.0505L555.844 55.4905C555.899 55.3025 555.955 55.1145 556.011 54.9266C559.051 44.855 563.643 35.7969 569.788 27.7524C575.995 19.7078 583.755 13.1518 593.066 8.08433C602.441 3.01688 613.431 0.483154 626.036 0.483154C633.954 0.483154 641.207 1.55999 647.795 3.71365C654.446 5.86732 660.147 9.06614 664.897 13.3101C669.648 17.5541 673.354 22.8116 676.014 29.0826C676.366 29.9121 676.695 30.7587 677 31.6226L647.881 37.359ZM442.753 77.7698L456.439 3.9987H427.27L412.63 83.7041L442.753 77.7698ZM208.458 92.0773L202.757 33.1682H202.377L173.398 92.0773H208.458Z" fill="white"/>
</svg>
