<svg width="820" height="114" viewBox="0 0 820 114" fill="none" xmlns="http://www.w3.org/2000/svg">
<path fill-rule="evenodd" clip-rule="evenodd" d="M209.033 71.7422C211.377 63.9785 212.549 56.2637 212.549 48.5977C212.549 43.4219 211.768 38.0264 210.205 32.4111C208.691 26.7471 206.104 21.5713 202.441 16.8838C198.779 12.1475 193.921 8.26562 187.866 5.23828C181.86 2.16211 174.39 0.624023 165.454 0.624023C155.688 0.624023 147.192 2.57715 139.966 6.4834C132.788 10.3896 126.831 15.4434 122.095 21.6445C117.358 27.8457 113.818 34.8281 111.475 42.5918C109.18 50.3066 108.032 58.0215 108.032 65.7363C108.032 70.9121 108.789 76.332 110.303 81.9961C111.865 87.6113 114.453 92.7871 118.066 97.5234C121.729 102.211 126.562 106.093 132.568 109.169C138.623 112.196 146.143 113.71 155.127 113.71C164.893 113.71 173.364 111.757 180.542 107.851C187.72 103.944 193.677 98.8906 198.413 92.6895C203.198 86.4883 206.738 79.5059 209.033 71.7422ZM172.778 90.0527C168.384 93.4219 162.744 95.1064 155.859 95.1064C152.49 95.1064 149.268 94.5693 146.191 93.4951C143.164 92.3721 140.479 90.6631 138.135 88.3682C135.791 86.0244 133.936 83.0703 132.568 79.5059C131.201 75.9414 130.518 71.6934 130.518 66.7617C130.518 62.5137 131.006 57.6553 131.982 52.1865C132.959 46.6689 134.717 41.4932 137.256 36.6592C139.844 31.7764 143.335 27.6504 147.729 24.2812C152.173 20.9121 157.837 19.2275 164.722 19.2275C168.091 19.2275 171.289 19.7891 174.316 20.9121C177.393 21.9863 180.103 23.6709 182.446 25.9658C184.79 28.2607 186.646 31.1904 188.013 34.7549C189.38 38.3193 190.063 42.5918 190.063 47.5723C190.063 51.8203 189.575 56.6787 188.599 62.1475C187.622 67.6162 185.84 72.792 183.252 77.6748C180.713 82.5576 177.222 86.6836 172.778 90.0527ZM23.0742 111L28.6406 79.3594L42.2637 65.7363L64.3828 111H89.4316L57.8643 49.4766L102.762 3.33398H74.8564L34.0605 46.0342L42.2637 3.33398H20.2178L0.735352 111H23.0742ZM245.034 108.388L244.553 111H222.067L241.696 3.33398H264.182L256.711 44.2764H298.825L306.369 3.33398H328.854L311.575 98.1109L288.427 101.446L295.529 62.8799H253.415L245.164 107.68L236 109L245.034 108.388ZM287.68 105.498L286.667 111H309.226L310.511 103.951L287.68 105.498ZM354.328 100.982L352.509 111H374.994L377.093 99.4398L354.328 100.982ZM422.806 96.3425L415.128 111H439.005L446.954 94.7062L422.806 96.3425ZM487.47 91.961L489.249 111H511.441L508.849 90.5124L487.47 91.961ZM506.261 70.0601L430.884 80.9207L471.524 3.33398H497.818L506.261 70.0601ZM528.423 89.1861L524.476 111H546.814L550.92 87.6618L528.423 89.1861ZM575.891 85.9698L588.123 111H613.172L599.508 84.3696L575.891 85.9698ZM586.252 58.5348L532.57 66.2696L543.958 3.33398H566.004L557.801 46.0342L598.597 3.33398H626.502L581.604 49.4766L586.252 58.5348ZM650.567 80.9099L645.103 111H667.588L673.332 79.3674L650.567 80.9099ZM679.557 45.0913L656.467 48.4181L661.289 21.8643H632.798L636.24 3.33398H712.559L709.116 21.8643H683.774L679.557 45.0913ZM718.933 76.2776L712.556 111H735.627L764.938 73.1604L742.136 74.7054L741.779 75.1846H741.486L741.568 74.7439L718.933 76.2776ZM748.924 35.0968L725.887 38.4159L732.331 3.33398H754.816L748.924 35.0968ZM774.385 31.4283L815.295 25.5338L819.343 3.33398H795.319L774.385 31.4283ZM807.134 70.3013L785.81 71.7462L777.155 111H799.714L807.134 70.3013ZM379.102 88.3816L356.012 91.7084L368.695 21.8643H340.204L343.646 3.33398H419.965L416.522 21.8643H391.181L379.102 88.3816ZM485.514 71.2295L481.119 25.8193H480.826L458.487 71.2295H485.514Z" fill="white"/>
</svg>
