<svg width="151" height="59" viewBox="0 0 151 59" fill="none" xmlns="http://www.w3.org/2000/svg">
<path d="M0 25V0H12.6435C15.022 0 16.9684 0.501927 18.4868 1.5098C20.0051 2.51767 20.7643 4.10777 20.7643 6.28413C20.7643 7.47671 20.4938 8.47253 19.9526 9.26759C19.4115 10.0626 18.5877 10.7533 17.4813 11.3395C20.4938 12.3233 22 14.3712 22 17.4831C22 19.8482 21.1762 21.7194 19.5286 23.1007C18.8462 23.6629 18.0668 24.0885 17.1986 24.3816C16.3264 24.6748 15.5631 24.8514 14.9049 24.9076C14.2467 24.9679 13.3502 24.996 12.2195 24.996H0V25ZM6.42474 9.82974H11.1211C13.2856 9.82974 14.3719 9.02264 14.3719 7.40844C14.3719 6.47285 14.065 5.8344 13.4552 5.49309C12.8414 5.15579 12.0055 4.98313 10.9475 4.98313H6.42474V9.82974ZM6.42474 19.8362H11.6138C12.7889 19.8362 13.7096 19.6434 14.3678 19.2579C15.0261 18.8725 15.3572 18.1176 15.3572 16.9932C15.3572 15.893 15.0059 15.1381 14.2992 14.7286C13.5925 14.319 12.6395 14.1142 11.4402 14.1142H6.42474V19.8362Z" fill="white"/>
<path d="M22 24.992V0H34.8129C37.2539 0 39.2524 0.614164 40.8047 1.84249C42.3609 3.07081 43.135 4.86914 43.135 7.22944C43.135 10.1317 41.8671 12.1668 39.3354 13.3389C40.9706 13.9009 42.0054 14.9767 42.4438 16.5703C42.744 17.602 42.9968 19.3682 43.2022 21.869C43.2022 21.9372 43.214 22.0978 43.2377 22.3426C43.2614 22.5875 43.2772 22.7601 43.289 22.8524C43.3009 22.9448 43.3167 23.0933 43.3404 23.29C43.3641 23.4907 43.3917 23.6392 43.4273 23.7476C43.4628 23.852 43.5023 23.9884 43.5497 24.153C43.5971 24.3176 43.6603 24.4621 43.7393 24.5906C43.8183 24.719 43.9052 24.8555 44 24.996H37.4711C37.2855 24.5504 37.1472 24.0446 37.0564 23.4706C36.9655 22.8966 36.8944 22.2021 36.851 21.3833C36.8036 20.5644 36.772 20.0265 36.7483 19.7696C36.5864 18.2723 36.1835 17.2206 35.5397 16.6105C34.8959 16.0003 33.8373 15.6993 32.3601 15.6993H28.4223V25H22L22 24.992ZM28.4262 11.0549H32.9526C34.1731 11.0549 35.121 10.8462 35.8004 10.4247C36.4797 10.0032 36.8194 9.18433 36.8194 7.96805C36.8194 6.02521 35.5081 5.05379 32.8815 5.05379H28.4262L28.4262 11.0549Z" fill="white"/>
<path d="M60.1447 0L69 25H62.6079L61.0774 20.4411H52.8883L51.3236 25H45L53.8896 0H60.1447ZM59.6802 15.7418L57.0152 7.01283L54.2855 15.7418H59.6802Z" fill="white"/>
<path d="M82.3717 25H74.4071L66 0H73.2541L78.4234 18.5753L83.7076 0H91L82.3717 25Z" fill="white"/>
<path d="M111.692 0V5.26823H98.3888V9.58882H110.55V14.6442H98.3888V19.523H112V25H92V0H111.692Z" fill="white"/>
<path d="M147.079 23.0112H148C147.946 23.6478 147.795 24.1403 147.541 24.4842C147.287 24.8281 146.948 25 146.526 25C146.075 25 145.707 24.7723 145.425 24.3216C145.143 23.8708 145 23.276 145 22.5418C145 21.7797 145.143 21.1664 145.425 20.7017C145.707 20.237 146.081 20 146.543 20C146.951 20 147.284 20.1673 147.547 20.5065C147.809 20.8457 147.952 21.2918 147.98 21.8494H147.053C147.03 21.6217 146.976 21.4452 146.888 21.3197C146.799 21.1942 146.688 21.1292 146.557 21.1292C146.369 21.1292 146.223 21.25 146.118 21.4963C146.015 21.7426 145.964 22.0864 145.964 22.5279C145.964 22.9461 146.015 23.2667 146.115 23.4944C146.218 23.7221 146.36 23.8336 146.551 23.8336C146.839 23.8383 147.019 23.5641 147.079 23.0112Z" fill="white"/>
<path d="M54.5456 55.244C56.9536 57.7494 60.3124 59 64.6261 59C68.7031 59 72.0826 57.8975 74.7729 55.6965C77.4591 53.4956 79.2029 50.3731 80 46.3291H71.7588C71.2855 48.2585 70.4883 49.7313 69.3674 50.7434C68.2464 51.7554 66.8556 52.2573 65.2032 52.2573C63.2809 52.2573 61.7987 51.5867 60.7483 50.2415C59.9138 49.176 59.4156 47.7608 59.2412 46L51 46.4525C51.2823 50.1509 52.4656 53.0801 54.5456 55.244Z" fill="white"/>
<path d="M60.026 39.1751C60.5716 37.4364 61.518 35.8991 62.8694 34.5674C64.2208 33.2357 65.8533 32.5678 67.7668 32.5678C71.2094 32.5678 72.97 34.3224 73.0609 37.8276H81V37.1321C81 33.7415 79.8304 31.0385 77.4913 29.0231C75.1521 27.0077 72.0153 26 68.0726 26C62.8694 26 58.7201 27.7664 55.6329 31.3032C52.5457 34.8401 51 39.2739 51 44.6088C51 44.7392 51 44.8696 51.0041 45L59.216 43.9172C59.2739 42.301 59.5425 40.7203 60.026 39.1751Z" fill="white"/>
<path d="M95 27H87.632L85 41L92.5563 39.8707L95 27Z" fill="white"/>
<path d="M113 27H105.319L103 38L110.989 36.9L113 27Z" fill="white"/>
<path d="M102.911 44.2711C102.884 44.3634 102.856 44.5186 102.829 44.7325C102.688 45.5002 102.563 46.1337 102.454 46.6245C102.341 47.1153 102.134 47.7488 101.83 48.5165C101.525 49.2842 101.17 49.8925 100.768 50.3414C100.366 50.7902 99.8033 51.1804 99.0811 51.5202C98.3589 51.86 97.539 52.0278 96.6216 52.0278C95.1225 52.0278 93.9708 51.6418 93.1627 50.8741C92.3584 50.1064 91.9563 49.0115 91.9563 47.5978C91.9563 46.9517 92.0539 46.0582 92.2491 44.9213L92.4053 44.1075L84.5622 44.5731C84.1874 46.6161 84 48.1473 84 49.1667C84 52.3047 85.0619 54.7294 87.1857 56.4368C89.3094 58.1442 92.3467 59 96.2898 59C104.067 59 108.693 55.1363 110.165 47.4132L111 43L103.075 43.4698L102.911 44.2711Z" fill="white"/>
<path d="M120 58H127.086L130 43L122.833 43.4245L120 58Z" fill="white"/>
<path d="M140.606 33.4128L142 27H116.394L115 33.4128H123.999L123.654 35L131.79 33.9356L131.901 33.4128H140.606Z" fill="white"/>
<path fill-rule="evenodd" clip-rule="evenodd" d="M146.5 19.6153C144.906 19.6153 143.615 20.907 143.615 22.5C143.615 24.093 144.906 25.3847 146.5 25.3847C148.094 25.3847 149.385 24.093 149.385 22.5C149.385 20.907 148.094 19.6153 146.5 19.6153ZM142 22.5C142 20.0145 144.015 18 146.5 18C148.985 18 151 20.0145 151 22.5C151 24.9855 148.985 27 146.5 27C144.015 27 142 24.9855 142 22.5Z" fill="white"/>
</svg>
