<svg width="751" height="138" viewBox="0 0 751 138" fill="none" xmlns="http://www.w3.org/2000/svg">
<path fill-rule="evenodd" clip-rule="evenodd" d="M41.9678 137.549H61.9629L100.488 45.4834H100.781L82.9102 137.549H103.931L123.413 29.8828H89.502L56.543 109.644H56.25L51.709 29.8828H18.8965L0 137.549H20.9473L35.5225 45.4834H35.8154L41.9678 137.549ZM219.431 137.549L205.808 29.8828H179.514L123.117 137.549H146.994L157.321 116.382H195.261L197.238 137.549H219.431ZM189.108 52.3682L193.503 97.7783H166.477L188.815 52.3682H189.108ZM312.006 63.1348L295.6 137.549H318.158L337.787 29.8828H313.764L260.224 101.733H259.931L273.261 29.8828H250.775L231 137.549H254.071L311.713 63.1348H312.006ZM306.366 6.0791C303.095 7.34863 299.311 7.9834 295.014 7.9834C289.887 7.9834 286.42 7.17773 284.613 5.56641C282.807 3.90625 281.83 2.05078 281.684 0H274.652C274.652 2.97852 274.823 5.7373 275.165 8.27637C275.556 10.7666 276.435 12.9395 277.802 14.7949C279.169 16.6016 281.195 18.0176 283.881 19.043C286.566 20.0684 290.229 20.5811 294.867 20.5811C301.068 20.5811 306.537 18.8232 311.273 15.3076C316.059 11.792 319.037 6.68945 320.209 0H313.178C311.908 2.7832 309.638 4.80957 306.366 6.0791ZM417.398 51.123C421.207 54.6387 423.111 59.5947 423.111 65.9912H445.597C445.597 59.6436 444.571 54.0527 442.521 49.2188C440.47 44.3848 437.613 40.332 433.951 37.0605C430.289 33.7891 425.895 31.3232 420.768 29.6631C415.689 28.0029 410.099 27.1729 403.995 27.1729C394.278 27.1729 385.807 29.126 378.58 33.0322C371.402 36.9385 365.421 41.9922 360.636 48.1934C355.899 54.3945 352.359 61.377 350.016 69.1406C347.721 76.8555 346.573 84.5703 346.573 92.2852C346.573 97.4609 347.33 102.881 348.844 108.545C350.406 114.16 353.019 119.336 356.681 124.072C358.59 126.516 360.818 128.741 363.364 130.747L437.693 113.841C439.605 109.885 441.141 105.532 442.301 100.781H419.449C417.643 108.105 414.444 113.281 409.854 116.309C405.265 119.287 400.162 120.776 394.547 120.776C389.908 120.776 385.953 120.044 382.682 118.579C379.459 117.114 376.822 115.137 374.771 112.646C372.77 110.156 371.305 107.251 370.377 103.931C369.498 100.61 369.059 97.0703 369.059 93.3105C369.059 89.0625 369.547 84.2041 370.523 78.7354C371.5 73.2178 373.258 68.042 375.797 63.208C378.385 58.3252 381.876 54.1992 386.271 50.8301C390.714 47.4609 396.378 45.7764 403.263 45.7764C408.878 45.7764 413.59 47.5586 417.398 51.123ZM473.443 134.23L472.84 137.549H495.325L496.373 131.777L473.443 134.23ZM502.299 99.1468L478.845 104.481L489.026 48.4131H460.535L463.978 29.8828H540.296L536.854 48.4131H511.512L502.299 99.1468ZM542.225 126.873L540.293 137.549H562.778L565.137 124.422L542.225 126.873ZM634.158 69.1562C634.57 66.5427 634.775 63.7787 634.775 60.8643C634.775 56.7627 634.092 52.8564 632.725 49.1455C631.406 45.3857 629.233 42.0898 626.206 39.2578C623.228 36.377 619.321 34.1064 614.487 32.4463C609.702 30.7373 603.818 29.8828 596.836 29.8828H559.775L549.171 88.486L580.127 81.4453H572.959L578.965 48.4131H597.861C603.867 48.4131 607.92 49.8535 610.02 52.7344C612.119 55.6152 613.169 59.082 613.169 63.1348C613.169 67.5613 611.94 71.4393 609.481 74.7689L634.158 69.1562ZM647.368 115.627L643.342 137.549H666.413L686.648 111.426L647.368 115.627ZM714.354 108.462L707.941 137.549H730.5L736.229 106.122L714.354 108.462ZM747.676 43.3373L750.129 29.8828H726.105L709.632 51.9902L747.676 43.3373ZM680.262 58.6702L656.852 63.9947L663.117 29.8828H685.603L680.262 58.6702Z" fill="white"/>
</svg>
