<svg width="375" height="132" viewBox="0 0 375 132" fill="none" xmlns="http://www.w3.org/2000/svg">
<path fill-rule="evenodd" clip-rule="evenodd" d="M84.5723 0.333984L68.3857 89.3965H26.1982L42.3848 0.333984H19.8994L0.270508 108H76.2959L72.4141 131.071H92.1895L99.5137 89.3965H90.8711L107.058 0.333984H84.5723ZM152.758 0.333984H130.272L110.717 108H111H133.275L133.989 104.054L111 108L134.851 99.294L152.758 0.333984ZM157.884 99.952L156.417 108H178.902L181.119 95.9635L157.884 99.952ZM183.796 81.428L159.655 90.2401L176.046 0.333984H198.531L191.061 41.2764H233.175L240.719 0.333984H263.204L253.027 56.1575L228.946 64.9476L229.879 59.8799H187.765L183.796 81.428ZM224.608 88.4983L221.017 108H243.575L247.858 84.5072L224.608 88.4983ZM272.921 80.2051L267.815 108H290.887L318.474 72.3855L272.921 80.2051ZM341.124 68.4974L332.415 108H354.974L362.856 64.7671L341.124 68.4974ZM372.367 12.5961L374.603 0.333984H350.579L329.888 28.1018L372.367 12.5961ZM303.111 37.8757L310.076 0.333984H287.591L279.085 46.6459L303.111 37.8757Z" fill="black"/>
</svg>
