<svg width="376" height="147" viewBox="0 0 376 147" fill="none" xmlns="http://www.w3.org/2000/svg">
<path d="M0 61.9309V0.0893707H31.107C36.9588 0.0893707 41.7476 1.33097 45.4832 3.8241C49.2188 6.31723 51.0867 10.2506 51.0867 15.6342C51.0867 18.5842 50.421 21.0476 49.0897 23.0143C47.7584 24.981 45.7316 26.6894 43.0094 28.1396C50.421 30.5731 54.1268 35.6388 54.1268 43.3368C54.1268 49.1872 52.1 53.8158 48.0465 57.2327C46.3675 58.6233 44.45 59.6762 42.3139 60.4013C40.1679 61.1264 38.2902 61.5634 36.6707 61.7025C35.0513 61.8515 32.8457 61.921 30.0638 61.921H0V61.9309ZM15.8069 24.4048H27.3615C32.6867 24.4048 35.3593 22.4083 35.3593 18.4154C35.3593 16.101 34.6042 14.5217 33.104 13.6774C31.5938 12.8431 29.5373 12.416 26.9342 12.416H15.8069V24.4048ZM15.8069 49.1574H28.5736C31.4647 49.1574 33.7299 48.6806 35.3493 47.727C36.9688 46.7735 37.7835 44.9061 37.7835 42.1249C37.7835 39.4033 36.9191 37.536 35.1804 36.5228C33.4418 35.5097 31.0971 35.0031 28.1463 35.0031H15.8069V49.1574Z" fill="black"/>
<path d="M55.6867 61.9309V0.0893707H87.9163C94.0563 0.0893707 99.0835 1.60909 102.988 4.64853C106.902 7.68796 108.85 12.1379 108.85 17.9783C108.85 25.1597 105.661 30.1957 99.2921 33.096C103.405 34.4866 106.008 37.1486 107.111 41.0919C107.866 43.6447 108.502 48.0151 109.019 54.2032C109.019 54.3721 109.048 54.7694 109.108 55.3753C109.168 55.9812 109.207 56.4083 109.237 56.6368C109.267 56.8652 109.307 57.2327 109.366 57.7194C109.426 58.2161 109.496 58.5836 109.585 58.8518C109.674 59.11 109.774 59.4477 109.893 59.855C110.012 60.2622 110.171 60.6198 110.37 60.9377C110.569 61.2555 110.787 61.5932 111.026 61.9409H94.6027C94.1358 60.8383 93.788 59.5868 93.5595 58.1664C93.331 56.746 93.1522 55.0276 93.0429 53.0014C92.9237 50.9751 92.8442 49.6441 92.7846 49.0084C92.3772 45.3034 91.3638 42.7011 89.7444 41.1913C88.125 39.6815 85.4624 38.9365 81.7466 38.9365H71.8412V61.9508H55.6866L55.6867 61.9309ZM71.8512 27.4443H83.2369C86.3069 27.4443 88.6913 26.9278 90.4001 25.8848C92.109 24.8419 92.9634 22.8156 92.9634 19.806C92.9634 14.9985 89.665 12.5948 83.0581 12.5948H71.8512L71.8512 27.4443Z" fill="black"/>
<path d="M151.77 0L174.879 61.931H158.198L154.204 50.6374H132.833L128.75 61.931H112.248L135.446 0H151.77ZM150.558 38.9962L143.603 17.3725L136.479 38.9962H150.558Z" fill="black"/>
<path d="M206.165 61.9309H187.566L167.934 0.0893707H184.874L196.945 46.0385L209.284 0.0893707H226.313L206.165 61.9309Z" fill="black"/>
<path d="M278.612 0.0893707V13.1212H245.16V23.8089H275.741V36.3143H245.16V48.3826H279.387V61.9309H229.095V0.0893707H278.612Z" fill="black"/>
<path d="M367.333 57.2725H370.542C370.353 58.6333 369.827 59.6862 368.943 60.4212C368.058 61.1562 366.876 61.5237 365.406 61.5237C363.836 61.5237 362.554 61.037 361.571 60.0735C360.587 59.11 360.09 57.8386 360.09 56.2693C360.09 54.6403 360.587 53.3292 361.571 52.3359C362.554 51.3426 363.856 50.836 365.465 50.836C366.886 50.836 368.048 51.1936 368.962 51.9187C369.876 52.6438 370.373 53.5973 370.473 54.7893H367.244C367.164 54.3026 366.975 53.9251 366.667 53.6569C366.359 53.3888 365.972 53.2497 365.515 53.2497C364.859 53.2497 364.352 53.5079 363.985 54.0344C363.627 54.5608 363.448 55.2958 363.448 56.2395C363.448 57.1334 363.627 57.8188 363.975 58.3055C364.333 58.7922 364.829 59.0306 365.495 59.0306C366.499 59.0405 367.124 58.4545 367.333 57.2725Z" fill="black"/>
<path d="M136.688 137.539C142.45 143.588 150.488 146.608 160.811 146.608C170.567 146.608 178.654 143.946 185.092 138.632C191.52 133.318 195.693 125.779 197.601 116.015H177.879C176.747 120.673 174.839 124.229 172.157 126.673C169.474 129.116 166.146 130.328 162.192 130.328C157.592 130.328 154.045 128.709 151.531 125.461C149.534 122.889 148.342 119.472 147.925 115.22L128.203 116.313C128.879 125.243 131.711 132.315 136.688 137.539Z" fill="black"/>
<path d="M149.733 98.3148C151.044 93.9444 153.32 90.0805 156.568 86.7332C159.817 83.3858 163.742 81.7072 168.342 81.7072C176.618 81.7072 180.85 86.1173 181.068 94.9277H200.154V93.1795C200.154 84.6572 197.342 77.8632 191.719 72.7975C186.096 67.7317 178.555 65.1989 169.077 65.1989C156.568 65.1989 146.593 69.6388 139.172 78.5287C131.75 87.4185 128.035 98.5631 128.035 111.972C128.035 112.3 128.035 112.628 128.044 112.956L147.786 110.234C147.925 106.172 148.571 102.199 149.733 98.3148Z" fill="black"/>
<path d="M236.854 66.947H217.024L209.94 101.672L230.277 98.871L236.854 66.947Z" fill="black"/>
<path d="M282.169 66.947H263.083L257.321 95.0568L277.171 92.2458L282.169 66.947Z" fill="black"/>
<path d="M254.559 111.208C254.489 111.426 254.42 111.794 254.35 112.3C253.993 114.118 253.675 115.618 253.397 116.78C253.108 117.942 252.582 119.442 251.807 121.26C251.032 123.077 250.128 124.518 249.105 125.58C248.081 126.643 246.651 127.567 244.813 128.371C242.975 129.176 240.888 129.573 238.553 129.573C234.738 129.573 231.807 128.659 229.751 126.842C227.704 125.024 226.681 122.432 226.681 119.084C226.681 117.555 226.929 115.439 227.426 112.747L227.823 110.82L207.864 111.923C206.91 116.76 206.433 120.385 206.433 122.799C206.433 130.229 209.135 135.97 214.54 140.013C219.945 144.055 227.674 146.082 237.709 146.082C257.5 146.082 269.273 136.934 273.018 118.647L275.145 108.198L254.976 109.31L254.559 111.208Z" fill="black"/>
<path d="M296.883 144.751H316.713L324.87 105.437L304.811 106.549L296.883 144.751Z" fill="black"/>
<path d="M351.179 83.8824L354.676 66.947H290.415L286.918 83.8824H309.5L308.636 88.0741L329.053 85.2631L329.331 83.8824H351.179Z" fill="black"/>
<path fill-rule="evenodd" clip-rule="evenodd" d="M365.406 49.2506C361.654 49.2506 358.613 52.2911 358.613 56.0408C358.613 59.7904 361.654 62.8309 365.406 62.8309C369.157 62.8309 372.198 59.7904 372.198 56.0408C372.198 52.2911 369.157 49.2506 365.406 49.2506ZM354.811 56.0408C354.811 50.1904 359.555 45.4485 365.406 45.4485C371.256 45.4485 376 50.1904 376 56.0408C376 61.8911 371.256 66.633 365.406 66.633C359.555 66.633 354.811 61.8911 354.811 56.0408Z" fill="black"/>
</svg>
