<svg width="31" height="31" viewBox="0 0 31 31" fill="none" xmlns="http://www.w3.org/2000/svg">
<path d="M14.1034 4.79309H4.68966C3.97631 4.79309 3.29219 5.07646 2.78778 5.58087C2.28337 6.08528 2 6.7694 2 7.48275V26.3103C2 27.0237 2.28337 27.7078 2.78778 28.2122C3.29219 28.7166 3.97631 29 4.68966 29H23.5172C24.2306 29 24.9147 28.7166 25.4191 28.2122C25.9235 27.7078 26.2069 27.0237 26.2069 26.3103V16.8965" stroke="#696969" stroke-width="3" stroke-linecap="round" stroke-linejoin="round"/>
<path d="M23.9861 2.81929C24.5369 2.29471 25.284 2 26.0629 2C26.8419 2 27.5889 2.29471 28.1397 2.81929C28.6906 3.34387 29 4.05535 29 4.79722C29 5.53909 28.6906 6.25057 28.1397 6.77515L14.9865 19.3021L9.44827 20.6207L10.8328 15.3462L23.9861 2.81929Z" fill="#696969" stroke="#696969" stroke-width="3" stroke-linecap="round" stroke-linejoin="round"/>
</svg>
