<svg width="38" height="38" viewBox="0 0 38 38" fill="none" xmlns="http://www.w3.org/2000/svg">
<path d="M4.15625 32.6562C4.15625 33.3131 4.68691 33.8438 5.34375 33.8438H32.6562C33.3131 33.8438 33.8438 33.3131 33.8438 32.6562V17.0703H4.15625V32.6562ZM32.6562 6.82812H26.4219V4.45312C26.4219 4.28984 26.2883 4.15625 26.125 4.15625H24.0469C23.8836 4.15625 23.75 4.28984 23.75 4.45312V6.82812H14.25V4.45312C14.25 4.28984 14.1164 4.15625 13.9531 4.15625H11.875C11.7117 4.15625 11.5781 4.28984 11.5781 4.45312V6.82812H5.34375C4.68691 6.82812 4.15625 7.35879 4.15625 8.01562V14.5469H33.8438V8.01562C33.8438 7.35879 33.3131 6.82812 32.6562 6.82812Z" fill="white"/>
</svg>
