<svg width="31" height="31" viewBox="0 0 31 31" fill="none" xmlns="http://www.w3.org/2000/svg">
<path d="M26 2H5C3.34315 2 2 3.34315 2 5V26C2 27.6569 3.34315 29 5 29H26C27.6569 29 29 27.6569 29 26V5C29 3.34315 27.6569 2 26 2Z" stroke="#696969" stroke-width="2.5" stroke-linecap="round" stroke-linejoin="round"/>
<path d="M10 12C11.1046 12 12 11.1046 12 10C12 8.89543 11.1046 8 10 8C8.89543 8 8 8.89543 8 10C8 11.1046 8.89543 12 10 12Z" fill="#696969" stroke="#696969" stroke-width="2.5" stroke-linecap="round" stroke-linejoin="round"/>
<path d="M28.0357 29V16.9464L21.5 12L4.99999 29" fill="#696969"/>
<path d="M28.0357 29V16.9464L21.5 12L4.99999 29" stroke="#696969" stroke-width="2.5" stroke-linecap="round" stroke-linejoin="round"/>
</svg>
