<svg width="66" height="66" viewBox="0 0 66 66" fill="none" xmlns="http://www.w3.org/2000/svg">
<rect x="66" y="66" width="66" height="66" rx="33" transform="rotate(-180 66 66)" fill="#222222"/>
<path d="M17.9393 31.9393C17.3536 32.5251 17.3536 33.4749 17.9393 34.0607L27.4853 43.6066C28.0711 44.1924 29.0208 44.1924 29.6066 43.6066C30.1924 43.0208 30.1924 42.0711 29.6066 41.4853L21.1213 33L29.6066 24.5147C30.1924 23.9289 30.1924 22.9792 29.6066 22.3934C29.0208 21.8076 28.0711 21.8076 27.4853 22.3934L17.9393 31.9393ZM19 34.5L49 34.5L49 31.5L19 31.5L19 34.5Z" fill="white"/>
</svg>
