<svg width="31" height="30" viewBox="0 0 31 30" fill="none" xmlns="http://www.w3.org/2000/svg">
<path d="M11.0129 23.3005C11.0129 20.7798 8.96938 18.7363 6.44863 18.7363C3.92787 18.7363 1.8844 20.7798 1.8844 23.3005C1.8844 25.8213 3.92787 27.8647 6.44863 27.8647C8.96938 27.8647 11.0129 25.8213 11.0129 23.3005Z" stroke="#696969" stroke-width="3" stroke-linecap="round" stroke-linejoin="round"/>
<path d="M29.27 23.3008C29.27 20.78 27.2265 18.7365 24.7057 18.7365C22.185 18.7365 20.1415 20.78 20.1415 23.3008C20.1415 25.8215 22.185 27.865 24.7057 27.865C27.2265 27.865 29.27 25.8215 29.27 23.3008Z" stroke="#696969" stroke-width="3" stroke-linecap="round" stroke-linejoin="round"/>
<path d="M3.40588 2.00085L21.4802 20.0752" stroke="#696969" stroke-width="3" stroke-linecap="round" stroke-linejoin="round"/>
<path d="M19.3501 10.4142L27.7483 2.00079" stroke="#696969" stroke-width="3" stroke-linecap="round" stroke-linejoin="round"/>
<path d="M9.67435 20.0753L15.5774 14.1722" stroke="#696969" stroke-width="3" stroke-linecap="round" stroke-linejoin="round"/>
</svg>
