<svg width="100" height="100" viewBox="0 0 154 154" fill="none" xmlns="http://www.w3.org/2000/svg">
<g filter="url(#filter0_b_46_739)">
<rect width="154" height="154" rx="77" fill="#3F890E"/>
<rect x="2.5" y="2.5" width="149" height="149" rx="74.5" stroke="url(#paint0_linear_46_739)" stroke-width="5"/>
</g>
<path d="M135.581 101.643L133.284 106.406L127.325 103.532L127.71 102.734L132.972 105.271L134.501 102.101L129.239 99.5635L129.622 98.769L135.581 101.643Z" fill="white"/>
<path d="M125.729 112.456C125.454 112.835 125.335 113.166 125.374 113.45C125.412 113.734 125.584 113.987 125.89 114.209C126.196 114.432 126.489 114.518 126.771 114.467C127.053 114.416 127.332 114.201 127.607 113.822L128.672 112.359L126.794 110.993L125.729 112.456ZM129.816 112.101L128.18 114.351C127.967 114.644 127.745 114.87 127.514 115.029C127.282 115.19 127.045 115.291 126.805 115.331C126.566 115.373 126.327 115.358 126.086 115.287C125.843 115.218 125.604 115.098 125.368 114.926C125.133 114.755 124.945 114.565 124.804 114.355C124.662 114.147 124.573 113.923 124.537 113.682C124.504 113.442 124.528 113.187 124.61 112.916C124.69 112.648 124.837 112.367 125.05 112.074L126.168 110.538L123.948 108.923L124.466 108.209L129.816 112.101Z" fill="white"/>
<path d="M116.506 122.157C116.309 121.951 116.132 121.725 115.977 121.48C115.823 121.237 115.7 120.981 115.606 120.714C115.515 120.448 115.456 120.174 115.431 119.892C115.405 119.613 115.423 119.331 115.482 119.046C115.544 118.763 115.653 118.484 115.81 118.21C115.963 117.936 116.172 117.672 116.436 117.419C116.701 117.166 116.975 116.969 117.259 116.827C117.54 116.683 117.823 116.586 118.109 116.538C118.394 116.493 118.677 116.489 118.956 116.525C119.237 116.564 119.508 116.635 119.769 116.738C120.032 116.844 120.281 116.979 120.517 117.144C120.755 117.311 120.973 117.497 121.17 117.703C121.524 118.074 121.796 118.464 121.986 118.871C122.174 119.281 122.274 119.692 122.286 120.104C122.298 120.516 122.217 120.92 122.045 121.317C121.874 121.717 121.604 122.092 121.236 122.445C120.869 122.795 120.482 123.046 120.075 123.198C119.669 123.354 119.261 123.416 118.852 123.383C118.441 123.352 118.036 123.233 117.638 123.024C117.237 122.817 116.86 122.528 116.506 122.157ZM117.143 121.548C117.415 121.832 117.703 122.058 118.007 122.224C118.312 122.392 118.62 122.493 118.929 122.525C119.238 122.562 119.543 122.528 119.845 122.422C120.149 122.319 120.434 122.14 120.701 121.885C120.97 121.628 121.163 121.35 121.28 121.051C121.4 120.755 121.449 120.451 121.429 120.138C121.408 119.83 121.321 119.519 121.167 119.206C121.015 118.895 120.803 118.597 120.532 118.313C120.254 118.022 119.966 117.789 119.666 117.615C119.369 117.442 119.068 117.338 118.763 117.301C118.458 117.264 118.155 117.299 117.853 117.404C117.552 117.514 117.258 117.705 116.971 117.979C116.687 118.25 116.483 118.534 116.359 118.831C116.238 119.129 116.19 119.431 116.214 119.735C116.237 120.041 116.328 120.346 116.486 120.651C116.647 120.958 116.866 121.257 117.143 121.548Z" fill="white"/>
<path d="M110.373 121.007L111.579 122.837L111.079 123.166C111.106 123.321 111.137 123.475 111.173 123.628C111.21 123.782 111.262 123.95 111.326 124.13C111.39 124.314 111.473 124.519 111.574 124.743C111.673 124.969 111.799 125.231 111.952 125.529C112.11 125.845 112.272 126.151 112.439 126.448C112.607 126.746 112.768 127.023 112.922 127.278C113.073 127.534 113.213 127.763 113.342 127.965C113.47 128.169 113.574 128.335 113.656 128.465L110.184 130.754L106.968 125.876L106.345 126.288L105.138 124.458L105.83 124.002L106.61 125.185L110.461 122.646L109.681 121.463L110.373 121.007ZM112.538 128.274C112.302 127.916 112.082 127.549 111.877 127.174C111.67 126.8 111.468 126.419 111.27 126.032C111.11 125.728 110.978 125.466 110.876 125.246C110.773 125.03 110.687 124.834 110.617 124.657C110.546 124.484 110.488 124.32 110.442 124.163C110.396 124.01 110.351 123.848 110.309 123.674L107.727 125.376L110.517 129.607L112.538 128.274Z" fill="white"/>
<path d="M97.967 133C97.8551 132.738 97.7695 132.465 97.7101 132.18C97.6518 131.898 97.6259 131.616 97.6322 131.332C97.6397 131.052 97.6813 130.775 97.757 130.501C97.8311 130.231 97.9462 129.974 98.1022 129.728C98.2594 129.484 98.4597 129.262 98.7031 129.06C98.9425 128.857 99.2306 128.683 99.5673 128.54C99.9039 128.396 100.23 128.308 100.545 128.274C100.859 128.238 101.158 128.247 101.443 128.302C101.726 128.361 101.991 128.456 102.24 128.588C102.49 128.723 102.719 128.885 102.927 129.073C103.136 129.265 103.322 129.479 103.485 129.716C103.649 129.956 103.787 130.207 103.899 130.469C104.1 130.941 104.218 131.401 104.253 131.849C104.285 132.299 104.234 132.719 104.1 133.108C103.967 133.498 103.749 133.849 103.448 134.16C103.148 134.474 102.764 134.731 102.295 134.931C101.828 135.13 101.378 135.229 100.944 135.229C100.508 135.232 100.104 135.146 99.7332 134.972C99.3592 134.799 99.0224 134.545 98.7227 134.209C98.4203 133.875 98.1684 133.472 97.967 133ZM98.7784 132.654C98.9326 133.015 99.1228 133.327 99.3489 133.59C99.5762 133.855 99.8288 134.057 100.107 134.196C100.383 134.339 100.681 134.414 101.001 134.421C101.321 134.431 101.651 134.364 101.991 134.219C102.333 134.073 102.611 133.881 102.826 133.642C103.042 133.407 103.195 133.139 103.286 132.839C103.375 132.544 103.402 132.222 103.368 131.875C103.335 131.53 103.242 131.177 103.088 130.815C102.93 130.445 102.741 130.126 102.522 129.857C102.304 129.592 102.059 129.388 101.787 129.246C101.515 129.105 101.219 129.031 100.899 129.023C100.578 129.02 100.235 129.096 99.8711 129.252C99.5096 129.406 99.2189 129.6 98.9991 129.834C98.7805 130.071 98.6293 130.336 98.5458 130.629C98.4594 130.924 98.4368 131.242 98.4781 131.583C98.5205 131.927 98.6206 132.284 98.7784 132.654Z" fill="white"/>
<path d="M93.4409 137.822L91.1327 138.348C90.8781 138.406 90.6541 138.449 90.4606 138.478C90.2678 138.509 90.083 138.522 89.9063 138.516C89.7383 138.508 89.5759 138.478 89.4191 138.424C89.26 138.374 89.1132 138.297 88.9786 138.192C88.8446 138.09 88.7291 137.961 88.632 137.805C88.5326 137.652 88.4589 137.47 88.411 137.26C88.3856 137.148 88.373 137.025 88.3729 136.89C88.3729 136.754 88.3922 136.616 88.4309 136.475C88.4702 136.337 88.5331 136.201 88.6196 136.067C88.7039 135.937 88.8188 135.82 88.9644 135.717C88.8228 135.703 88.6742 135.672 88.5188 135.624C88.3633 135.576 88.2156 135.502 88.0758 135.402C87.9338 135.305 87.8058 135.176 87.6921 135.014C87.579 134.855 87.4945 134.653 87.4386 134.407C87.4066 134.266 87.3908 134.116 87.3913 133.956C87.3896 133.799 87.4107 133.642 87.4548 133.485C87.496 133.327 87.5608 133.173 87.6492 133.02C87.7376 132.868 87.8545 132.726 87.9999 132.594C88.1454 132.463 88.3215 132.344 88.5282 132.239C88.7328 132.137 88.974 132.054 89.2519 131.991L91.9727 131.372L93.4409 137.822ZM89.551 132.717C89.2701 132.781 89.0406 132.861 88.8624 132.956C88.682 133.056 88.5442 133.167 88.4492 133.291C88.3519 133.417 88.2925 133.555 88.2712 133.705C88.2498 133.854 88.2584 134.014 88.2971 134.184C88.3357 134.353 88.397 134.501 88.4809 134.626C88.5649 134.752 88.6778 134.849 88.8197 134.919C88.9594 134.991 89.1318 135.032 89.3369 135.041C89.5397 135.053 89.7815 135.027 90.0624 134.964L91.7958 134.569L91.2844 132.322L89.551 132.717ZM90.345 135.638C90.0613 135.702 89.8391 135.781 89.6784 135.872C89.5156 135.968 89.3976 136.072 89.3247 136.184C89.2494 136.299 89.21 136.424 89.2065 136.557C89.2029 136.69 89.2175 136.828 89.2501 136.972C89.2847 137.124 89.3388 137.253 89.4122 137.359C89.4834 137.469 89.581 137.553 89.7049 137.611C89.8289 137.669 89.9807 137.701 90.1604 137.706C90.3401 137.711 90.5528 137.686 90.7985 137.63L92.409 137.263L91.9556 135.271L90.345 135.638Z" fill="white"/>
<path d="M79.6004 136.987L79.0069 137.013L76.8078 139.948L75.6433 140L78.1656 136.735L75.3505 133.391L76.56 133.337L78.9738 136.266L79.5673 136.24L79.433 133.21L80.3143 133.171L80.4485 136.201L81.042 136.175L83.1963 133.043L84.3968 132.99L81.8329 136.536L84.6492 139.601L83.5071 139.652L81.0751 136.921L80.4816 136.947L80.6071 139.78L79.7259 139.819L79.6004 136.987Z" fill="white"/>
<path d="M70.9858 133.796C70.9567 133.765 70.9175 133.731 70.868 133.694C70.8181 133.66 70.7636 133.626 70.7044 133.594C70.6448 133.565 70.5833 133.538 70.5199 133.514C70.4532 133.493 70.3886 133.478 70.3261 133.47C70.1923 133.452 70.0755 133.454 69.9755 133.477C69.8721 133.502 69.7822 133.54 69.7057 133.59C69.6259 133.643 69.5584 133.705 69.5033 133.776C69.4477 133.85 69.4007 133.928 69.3623 134.011L71.3371 139.626L70.3159 139.487L68.7396 134.848L66.5075 138.969L65.5175 138.834L68.2446 134.213C68.4319 133.906 68.6037 133.644 68.7601 133.429C68.9131 133.217 69.0724 133.048 69.2379 132.922C69.4004 132.796 69.5783 132.713 69.7715 132.672C69.9622 132.629 70.1868 132.624 70.4455 132.66C70.5793 132.678 70.7077 132.713 70.8306 132.766C70.9536 132.82 71.0455 132.879 71.1062 132.945L70.9858 133.796Z" fill="white"/>
<path d="M58.0568 138.644C58.0921 138.4 58.0542 138.206 57.9431 138.062C57.8292 137.918 57.6581 137.809 57.4299 137.734C57.1988 137.659 56.9947 137.651 56.8177 137.71C56.6407 137.769 56.4974 137.899 56.3878 138.1L55.6132 137.848C55.6736 137.663 55.7678 137.509 55.896 137.386C56.0214 137.263 56.1725 137.172 56.3496 137.113C56.5237 137.053 56.7199 137.027 56.9382 137.035C57.1527 137.045 57.3784 137.088 57.6152 137.165C57.8662 137.247 58.0819 137.35 58.2621 137.475C58.4414 137.603 58.5837 137.742 58.6891 137.893C58.7908 138.046 58.855 138.208 58.8818 138.377C58.9048 138.549 58.8866 138.721 58.8271 138.894L58.0568 138.644ZM60.2624 137.568L59.4236 137.295L61.0803 132.207L61.0632 132.201L56.2055 136.247L55.234 135.931L57.2822 129.64L58.1253 129.914L56.4588 135.033L56.476 135.038L61.3392 130.961L62.3106 131.277L60.2624 137.568Z" fill="white"/>
<path d="M39.1639 127.082L36.1252 124.655L36.6083 124.05L38.9576 125.926L42.6027 121.361L43.292 121.912L39.1639 127.082Z" fill="white"/>
<path d="M29.9956 113.557C30.2103 113.369 30.4438 113.203 30.6961 113.059C30.9461 112.916 31.2068 112.804 31.4781 112.723C31.7472 112.643 32.0236 112.597 32.3073 112.585C32.5867 112.572 32.8675 112.602 33.1497 112.674C33.4296 112.748 33.7031 112.87 33.9701 113.039C34.2375 113.204 34.4915 113.425 34.7322 113.7C34.9728 113.976 35.1577 114.259 35.2869 114.548C35.4183 114.836 35.5019 115.123 35.5376 115.411C35.5691 115.698 35.5606 115.98 35.5119 116.257C35.461 116.537 35.378 116.804 35.2627 117.06C35.1453 117.318 34.999 117.561 34.824 117.789C34.6467 118.02 34.4507 118.229 34.2359 118.416C33.8493 118.753 33.4482 119.008 33.0325 119.18C32.6148 119.349 32.1999 119.43 31.7878 119.423C31.3757 119.417 30.9752 119.318 30.5863 119.128C30.195 118.94 29.8317 118.653 29.4964 118.269C29.163 117.887 28.9295 117.489 28.796 117.076C28.6583 116.663 28.6149 116.253 28.666 115.846C28.7151 115.437 28.8528 115.038 29.0792 114.649C29.3035 114.258 29.609 113.894 29.9956 113.557ZM30.5755 114.221C30.2794 114.48 30.0415 114.757 29.8619 115.053C29.68 115.351 29.5658 115.654 29.5194 115.961C29.4687 116.268 29.4893 116.575 29.5812 116.881C29.6709 117.189 29.837 117.482 30.0796 117.76C30.3242 118.04 30.5931 118.246 30.8862 118.376C31.177 118.509 31.4789 118.572 31.792 118.566C32.1007 118.559 32.4151 118.486 32.7351 118.346C33.0528 118.208 33.3598 118.01 33.6559 117.751C33.9589 117.487 34.2042 117.209 34.392 116.918C34.5776 116.629 34.6956 116.333 34.7459 116.03C34.7963 115.727 34.7755 115.423 34.6837 115.116C34.5875 114.81 34.4093 114.508 34.1489 114.209C33.8905 113.913 33.616 113.697 33.3255 113.56C33.0327 113.425 32.7338 113.363 32.429 113.375C32.1222 113.383 31.8128 113.46 31.501 113.605C31.187 113.752 30.8785 113.957 30.5755 114.221Z" fill="white"/>
<path d="M25.2907 106.845C25.0509 106.443 24.7929 106.204 24.5168 106.127C24.2406 106.051 23.9402 106.11 23.6156 106.303C23.2909 106.497 23.0966 106.733 23.0326 107.013C22.9686 107.292 23.0566 107.633 23.2964 108.035L24.2234 109.588L26.2177 108.398L25.2907 106.845ZM24.0106 110.742L22.5855 108.354C22.3995 108.042 22.2788 107.749 22.2234 107.475C22.1664 107.198 22.1668 106.941 22.2245 106.704C22.2796 106.468 22.3874 106.253 22.5479 106.06C22.7069 105.864 22.9114 105.691 23.1613 105.542C23.4112 105.393 23.6603 105.295 23.9084 105.248C24.155 105.199 24.3963 105.205 24.6323 105.267C24.8658 105.33 25.0909 105.453 25.3076 105.634C25.5227 105.813 25.7233 106.059 25.9093 106.371L26.8825 108.002L29.2401 106.595L29.6921 107.353L24.0106 110.742Z" fill="white"/>
<path d="M18.8581 100.944L16.9698 95.9033L17.6947 95.6317L18.4841 97.739L23.9546 95.6897L24.2656 96.5199L18.7951 98.5693L19.583 100.672L18.8581 100.944Z" fill="white"/>
<path d="M18.594 85.7281L15.877 87.2439L18.972 87.8185L18.594 85.7281ZM21.9938 89.202L14.9404 87.9576L14.749 86.8991L20.9342 83.3428L21.1088 84.3083L19.24 85.3551L19.703 87.915L21.8272 88.2809L21.9938 89.202Z" fill="white"/>
<path d="M14 78.8285L14.0033 73.4458L14.7774 73.4463L14.776 75.6966L20.6178 75.7001L20.6172 76.5867L14.7755 76.5832L14.7741 78.829L14 78.8285Z" fill="white"/>
<path d="M14.5524 67.7534L14.7105 66.8855L19.9751 67.8442L19.9783 67.8265L15.3168 63.5558L15.4998 62.5507L22.0086 63.736L21.8498 64.6082L16.5542 63.6439L16.551 63.6616L21.2443 67.9335L21.0613 68.9386L14.5524 67.7534Z" fill="white"/>
<path d="M21.6312 46.2414L24.3462 41.7034L30.0236 45.1001L29.5684 45.8609L24.5553 42.8617L22.7484 45.8819L27.7614 48.8811L27.3085 49.6381L21.6312 46.2414Z" fill="white"/>
<path d="M32.4127 36.3547C32.7209 36.0024 32.8686 35.6832 32.8559 35.397C32.8431 35.1108 32.6945 34.8432 32.4099 34.5943C32.1254 34.3454 31.8404 34.2337 31.5551 34.2591C31.2697 34.2846 30.973 34.4735 30.6648 34.8258L29.4736 36.1875L31.2215 37.7165L32.4127 36.3547ZM28.3102 36.3418L30.1414 34.2483C30.3804 33.9751 30.6219 33.7697 30.8657 33.6322C31.1115 33.4925 31.3561 33.4134 31.5994 33.395C31.8404 33.3747 32.0778 33.4109 32.3115 33.5037C32.5472 33.5943 32.7746 33.7354 32.9937 33.927C33.2127 34.1186 33.3828 34.3252 33.5039 34.5467C33.627 34.766 33.6957 34.9975 33.7098 35.2411C33.7217 35.4827 33.6747 35.7346 33.5689 35.9968C33.4651 36.2568 33.2937 36.5234 33.0546 36.7967L31.8042 38.2262L33.8705 40.0337L33.2898 40.6976L28.3102 36.3418Z" fill="white"/>
<path d="M42.4688 27.5196C42.6464 27.7425 42.8017 27.9833 42.9347 28.2417C43.0658 28.4979 43.166 28.7633 43.2352 29.038C43.3026 29.3104 43.3362 29.5886 43.336 29.8726C43.3364 30.1523 43.2941 30.4315 43.2091 30.7101C43.1223 30.9864 42.9884 31.2541 42.8074 31.5133C42.6307 31.773 42.3992 32.0169 42.1128 32.245C41.8265 32.473 41.5359 32.6451 41.2409 32.7611C40.9478 32.8795 40.6568 32.9501 40.3681 32.9729C40.0799 32.9915 39.7984 32.9703 39.5234 32.9092C39.2466 32.8458 38.983 32.7509 38.7326 32.6243C38.4803 32.4953 38.244 32.3383 38.0237 32.1532C37.8015 31.9658 37.6017 31.7606 37.4241 31.5376C37.1044 31.1363 36.8682 30.7241 36.7154 30.3012C36.565 29.8763 36.5024 29.4582 36.5276 29.0468C36.5529 28.6355 36.6692 28.2398 36.8767 27.8597C37.0823 27.4773 37.3846 27.1272 37.7836 26.8095C38.1802 26.4935 38.5878 26.2782 39.0065 26.1633C39.4257 26.0443 39.8374 26.0194 40.2417 26.0887C40.6482 26.1561 41.0406 26.3116 41.4187 26.5551C41.7991 26.7968 42.1492 27.1183 42.4688 27.5196ZM41.7788 28.0692C41.5339 27.7617 41.2676 27.5116 40.9798 27.3189C40.6902 27.1238 40.3929 26.9962 40.088 26.936C39.7836 26.8716 39.4764 26.8785 39.1665 26.9565C38.8547 27.0322 38.5545 27.185 38.2658 27.415C37.9748 27.6468 37.7575 27.9061 37.614 28.1931C37.4686 28.4776 37.392 28.7764 37.3843 29.0894C37.3771 29.3982 37.4362 29.7156 37.5615 30.0415C37.685 30.3651 37.8692 30.6806 38.1141 30.9881C38.3646 31.3025 38.6311 31.5601 38.9137 31.7608C39.1944 31.9592 39.4849 32.0903 39.7851 32.1542C40.0853 32.2181 40.3904 32.211 40.7003 32.133C41.0107 32.0507 41.3208 31.8862 41.6306 31.6394C41.938 31.3946 42.1665 31.1301 42.3162 30.846C42.4639 30.5595 42.5391 30.2638 42.5416 29.9587C42.5465 29.6518 42.4836 29.3394 42.3531 29.0214C42.2207 28.7011 42.0293 28.3836 41.7788 28.0692Z" fill="white"/>
<path d="M48.4739 29.2151L47.4364 27.2844L47.9637 27.0011C47.9511 26.8444 47.9337 26.6885 47.9117 26.5334C47.8883 26.3757 47.8523 26.2043 47.8039 26.0191C47.7567 25.8299 47.6928 25.619 47.6121 25.3864C47.5341 25.1525 47.4321 24.8803 47.3062 24.5699C47.177 24.2408 47.0428 23.9212 46.9035 23.6112C46.7627 23.2985 46.6273 23.0085 46.4973 22.7412C46.3699 22.4724 46.2507 22.2316 46.1397 22.0187C46.0314 21.8045 45.9424 21.6292 45.8726 21.493L49.5358 19.5246L52.3009 24.6705L52.959 24.3169L53.9964 26.2476L53.267 26.6396L52.5959 25.3908L48.5323 27.5743L49.2034 28.8231L48.4739 29.2151ZM46.9684 21.7829C47.1715 22.1609 47.358 22.546 47.528 22.9384C47.7006 23.3293 47.868 23.7264 48.0302 24.1297C48.1631 24.4467 48.2704 24.7194 48.3523 24.9478C48.4354 25.1723 48.5038 25.3756 48.5575 25.558C48.6125 25.7362 48.6557 25.9054 48.6873 26.0656C48.72 26.2217 48.7498 26.3879 48.7764 26.5644L51.5 25.1008L49.1013 20.6368L46.9684 21.7829Z" fill="white"/>
<path d="M61.9047 18.3823C61.9926 18.6535 62.0534 18.9334 62.0871 19.2221C62.1198 19.508 62.1203 19.7917 62.0886 20.0732C62.056 20.3519 61.9897 20.6242 61.8898 20.89C61.7918 21.152 61.6541 21.3985 61.4767 21.6295C61.2983 21.8577 61.0789 22.0613 60.8184 22.2404C60.5617 22.4214 60.2592 22.5684 59.911 22.6813C59.5628 22.7942 59.2302 22.8532 58.9133 22.8582C58.5973 22.866 58.3001 22.8299 58.0218 22.7498C57.7454 22.6659 57.4893 22.5471 57.2533 22.3934C57.0164 22.2368 56.803 22.0552 56.613 21.8487C56.4221 21.6394 56.2561 21.4093 56.1149 21.1586C55.9727 20.9051 55.8577 20.6427 55.7698 20.3716C55.6115 19.8835 55.5352 19.4147 55.5408 18.9649C55.5492 18.5143 55.6375 18.1009 55.8057 17.7246C55.9739 17.3484 56.2218 17.0188 56.5496 16.7359C56.8765 16.4501 57.2825 16.2285 57.7677 16.0712C58.25 15.9148 58.7074 15.8564 59.1397 15.896C59.574 15.9318 59.9682 16.0532 60.3223 16.2601C60.6793 16.4661 60.992 16.7495 61.2604 17.1104C61.5316 17.4703 61.7464 17.8943 61.9047 18.3823ZM61.0655 18.6544C60.9443 18.2805 60.7828 17.9528 60.5812 17.6712C60.3785 17.3868 60.1451 17.1629 59.8807 16.9994C59.6183 16.8322 59.3283 16.7306 59.0108 16.6948C58.6923 16.6562 58.3575 16.6937 58.0064 16.8076C57.6525 16.9223 57.358 17.0888 57.1228 17.307C56.8866 17.5224 56.71 17.7752 56.5928 18.0655C56.4775 18.3521 56.4213 18.67 56.4242 19.0192C56.4261 19.3655 56.4876 19.7256 56.6089 20.0995C56.7329 20.4819 56.8919 20.8168 57.086 21.104C57.2791 21.3883 57.505 21.6131 57.7636 21.7784C58.0222 21.9438 58.3103 22.0443 58.6279 22.0801C58.9474 22.1122 59.2955 22.0671 59.6722 21.945C60.0461 21.8237 60.353 21.6564 60.5929 21.443C60.8319 21.2267 61.0062 20.9762 61.1157 20.6915C61.2281 20.4059 61.2791 20.0913 61.2687 19.7477C61.2573 19.4013 61.1896 19.0369 61.0655 18.6544Z" fill="white"/>
<path d="M66.8447 13.985L69.1908 13.6687C69.4495 13.6338 69.6765 13.6108 69.8718 13.5996C70.0666 13.5854 70.2518 13.5892 70.4273 13.6109C70.5939 13.6339 70.7529 13.6791 70.9043 13.7465C71.0582 13.8105 71.1976 13.9007 71.3222 14.0171C71.4465 14.1305 71.55 14.2694 71.6328 14.4339C71.7181 14.5949 71.7751 14.7825 71.804 14.9966C71.8192 15.1096 71.8208 15.2335 71.8087 15.3684C71.7966 15.5032 71.765 15.6392 71.7139 15.7762C71.6623 15.9104 71.5875 16.04 71.4893 16.1653C71.3937 16.2872 71.2688 16.3933 71.1144 16.4838C71.2543 16.5103 71.3995 16.5543 71.55 16.6158C71.7006 16.6772 71.841 16.7642 71.9713 16.8769C72.1041 16.9861 72.2199 17.1264 72.3187 17.2978C72.4171 17.4662 72.4831 17.6752 72.5168 17.925C72.536 18.0677 72.5382 18.2188 72.5234 18.3783C72.5111 18.5343 72.476 18.6889 72.4179 18.8421C72.3628 18.9948 72.2844 19.1431 72.1827 19.287C72.081 19.4309 71.9519 19.5619 71.7952 19.6799C71.6385 19.7979 71.4525 19.9002 71.2371 19.9868C71.0243 20.07 70.7767 20.1306 70.4942 20.1687L67.7288 20.5416L66.8447 13.985ZM70.2614 19.419C70.5468 19.3805 70.7826 19.3214 70.9686 19.2419C71.1573 19.1589 71.3044 19.0603 71.4102 18.9462C71.5184 18.8286 71.5899 18.6964 71.6246 18.5494C71.6593 18.4024 71.665 18.2427 71.6417 18.0703C71.6185 17.8978 71.5707 17.7453 71.4983 17.6128C71.4259 17.4802 71.3222 17.3731 71.187 17.2914C71.0545 17.2064 70.8864 17.1503 70.683 17.1232C70.4821 17.0928 70.2389 17.0968 69.9534 17.1353L68.1917 17.3729L68.4996 19.6565L70.2614 19.419ZM69.7323 16.4385C70.0208 16.3996 70.2491 16.3416 70.4173 16.2644C70.5881 16.1839 70.7148 16.0911 70.7976 15.9861C70.8829 15.8777 70.9332 15.7574 70.9487 15.6251C70.9642 15.4928 70.9621 15.3539 70.9424 15.2082C70.9216 15.0535 70.8794 14.92 70.8157 14.8074C70.7547 14.6915 70.665 14.5992 70.5468 14.5304C70.4285 14.4615 70.2801 14.4164 70.1017 14.3951C69.9232 14.3738 69.7091 14.3799 69.4593 14.4136L67.8224 14.6343L68.0954 16.6593L69.7323 16.4385Z" fill="white"/>
<path d="M80.5547 16.0584L81.1482 16.0854L83.6015 13.3587L84.7659 13.4117L81.9611 16.4377L84.4651 20.0208L83.2557 19.9657L81.1142 16.8317L80.5207 16.8047L80.3828 19.8349L79.5016 19.7948L79.6395 16.7646L79.0461 16.7376L76.6197 19.6637L75.4193 19.609L78.2908 16.3067L75.7606 13.0018L76.9026 13.0538L79.08 15.9912L79.6735 16.0182L79.8024 13.1858L80.6836 13.2259L80.5547 16.0584Z" fill="white"/>
<path d="M88.8485 20.0083C88.8747 20.042 88.9107 20.0795 88.9567 20.1208C89.0033 20.1592 89.0547 20.1971 89.1107 20.2346C89.1675 20.2691 89.2263 20.301 89.2873 20.3304C89.3519 20.3575 89.4149 20.3781 89.4763 20.3921C89.608 20.4222 89.7246 20.4305 89.8262 20.4168C89.9314 20.4009 90.0244 20.3713 90.105 20.3282C90.1893 20.2829 90.262 20.2272 90.3233 20.1612C90.3853 20.0923 90.4391 20.0184 90.4848 19.9396L89.0212 14.1705L90.0259 14.4004L91.18 19.1615L93.7725 15.2579L94.7465 15.4809L91.6161 19.8384C91.402 20.128 91.2075 20.3728 91.0324 20.5728C90.861 20.7706 90.6872 20.9247 90.5111 21.0352C90.3379 21.1464 90.1533 21.2134 89.9572 21.2363C89.7634 21.2627 89.5393 21.2468 89.2848 21.1886C89.1532 21.1584 89.0285 21.1114 88.9108 21.0476C88.7931 20.9837 88.7069 20.9163 88.6524 20.8453L88.8485 20.0083Z" fill="white"/>
<path d="M102.16 16.339C102.103 16.5789 102.123 16.7753 102.221 16.9281C102.322 17.0821 102.482 17.2064 102.703 17.3008C102.926 17.3965 103.129 17.4228 103.31 17.3798C103.492 17.3368 103.646 17.2201 103.774 17.0298L104.522 17.3504C104.446 17.5297 104.338 17.6745 104.199 17.7849C104.064 17.8964 103.905 17.9737 103.723 18.0167C103.544 18.0609 103.347 18.0692 103.13 18.0417C102.917 18.0127 102.696 17.9491 102.467 17.8511C102.225 17.7472 102.019 17.6249 101.851 17.4843C101.684 17.341 101.554 17.1894 101.463 17.0295C101.375 16.868 101.326 16.7015 101.314 16.5302C101.307 16.3572 101.341 16.1872 101.415 16.0201L102.16 16.339ZM99.8669 17.2126L100.678 17.5598L98.5717 22.4791L98.5882 22.4862L103.789 18.8919L104.728 19.294L102.124 25.3759L101.309 25.0269L103.428 20.0787L103.411 20.0716L98.2022 23.6966L97.263 23.2945L99.8669 17.2126Z" fill="white"/>
<path d="M119.941 29.5481L122.75 32.237L122.214 32.7962L120.042 30.7173L116.003 34.9372L115.366 34.3272L119.941 29.5481Z" fill="white"/>
<path d="M127.86 43.8403C127.629 44.0077 127.381 44.1521 127.117 44.2733C126.856 44.3928 126.586 44.481 126.308 44.5378C126.033 44.5929 125.754 44.614 125.47 44.6011C125.191 44.5889 124.914 44.5341 124.639 44.4368C124.367 44.3376 124.105 44.1919 123.855 43.9995C123.603 43.8113 123.37 43.569 123.155 43.2727C122.94 42.9765 122.781 42.6784 122.678 42.3785C122.573 42.0804 122.516 41.7866 122.506 41.4971C122.5 41.2084 122.534 40.928 122.607 40.6561C122.683 40.3825 122.79 40.1234 122.928 39.8789C123.068 39.6326 123.235 39.4036 123.43 39.1918C123.627 38.9783 123.841 38.7878 124.072 38.6204C124.487 38.3191 124.91 38.1016 125.339 37.968C125.77 37.8367 126.191 37.793 126.6 37.8366C127.01 37.8803 127.4 38.0143 127.771 38.2386C128.143 38.4612 128.48 38.7788 128.779 39.1917C129.077 39.6021 129.274 40.019 129.37 40.4424C129.47 40.8665 129.476 41.2789 129.389 41.6796C129.303 42.0828 129.13 42.4678 128.87 42.8345C128.612 43.2038 128.275 43.539 127.86 43.8403ZM127.342 43.1264C127.66 42.8956 127.921 42.6407 128.127 42.3619C128.335 42.0813 128.476 41.79 128.549 41.4881C128.627 41.1869 128.634 40.8797 128.57 40.5666C128.509 40.2518 128.369 39.945 128.153 39.6463C127.934 39.3452 127.685 39.1165 127.405 38.9602C127.127 38.8022 126.832 38.7123 126.519 38.6906C126.211 38.6695 125.892 38.7143 125.56 38.8249C125.232 38.9337 124.908 39.1036 124.59 39.3344C124.265 39.5705 123.995 39.8252 123.782 40.0985C123.571 40.3701 123.427 40.6544 123.35 40.9514C123.273 41.2485 123.266 41.5536 123.33 41.8666C123.398 42.1804 123.549 42.4976 123.781 42.8181C124.012 43.1362 124.266 43.3764 124.543 43.5386C124.823 43.6991 125.115 43.7874 125.42 43.8036C125.726 43.8223 126.041 43.7735 126.364 43.6574C126.69 43.5395 127.016 43.3625 127.342 43.1264Z" fill="white"/>
<path d="M131.944 50.9472C132.147 51.369 132.382 51.6303 132.65 51.7311C132.919 51.8319 133.223 51.8003 133.564 51.6365C133.904 51.4727 134.119 51.2546 134.208 50.9822C134.297 50.7098 134.24 50.3627 134.037 49.9408L133.253 48.3103L131.16 49.3167L131.944 50.9472ZM133.568 47.1799L134.773 49.6865C134.931 50.0137 135.025 50.3164 135.055 50.5947C135.087 50.8757 135.064 51.1316 134.985 51.3626C134.909 51.5922 134.782 51.7962 134.605 51.9747C134.429 52.1558 134.21 52.3094 133.948 52.4356C133.686 52.5617 133.429 52.6369 133.178 52.6612C132.928 52.6882 132.688 52.6603 132.458 52.5776C132.231 52.4936 132.018 52.3514 131.819 52.151C131.62 51.9534 131.443 51.691 131.285 51.3638L130.462 49.6521L127.988 50.8418L127.606 50.0468L133.568 47.1799Z" fill="white"/>
<path d="M137.822 57.4008L139.25 62.5903L138.504 62.7958L137.907 60.6263L132.275 62.177L132.039 61.3222L137.671 59.7715L137.075 57.6062L137.822 57.4008Z" fill="white"/>
<path d="M136.721 72.579L139.563 71.3128L136.532 70.4631L136.721 72.579ZM133.646 68.8143L140.56 70.686L140.655 71.7573L134.176 74.7449L134.089 73.7677L136.044 72.8925L135.812 70.3015L133.729 69.7467L133.646 68.8143Z" fill="white"/>
<path d="M140.678 79.8626L140.192 85.2234L139.421 85.1535L139.624 82.9124L133.806 82.3852L133.886 81.5022L139.704 82.0294L139.907 79.7928L140.678 79.8626Z" fill="white"/>
<path d="M139.135 90.8437L138.9 91.6939L133.742 90.2671L133.737 90.2845L137.997 94.9558L137.725 95.9405L131.348 94.1765L131.585 93.322L136.773 94.7572L136.777 94.7398L132.486 90.0644L132.758 89.0798L139.135 90.8437Z" fill="white"/>
<path d="M77.5 71.375V66.25M77.5 93.5834C70.8956 93.5834 65.5417 88.2294 65.5417 81.625V71.375C65.5417 64.7706 70.8956 59.4167 77.5 59.4167C84.1044 59.4167 89.4583 64.7706 89.4583 71.375V81.625C89.4583 88.2294 84.1044 93.5834 77.5 93.5834Z" stroke="white" stroke-width="2.33333" stroke-linecap="round" stroke-linejoin="round"/>
<defs>
<filter id="filter0_b_46_739" x="-48" y="-48" width="250" height="250" filterUnits="userSpaceOnUse" color-interpolation-filters="sRGB">
<feFlood flood-opacity="0" result="BackgroundImageFix"/>
<feGaussianBlur in="BackgroundImageFix" stdDeviation="24"/>
<feComposite in2="SourceAlpha" operator="in" result="effect1_backgroundBlur_46_739"/>
<feBlend mode="normal" in="SourceGraphic" in2="effect1_backgroundBlur_46_739" result="shape"/>
</filter>
<linearGradient id="paint0_linear_46_739" x1="154" y1="6.16" x2="6.93001" y2="154" gradientUnits="userSpaceOnUse">
<stop stop-color="white" stop-opacity="0.34"/>
<stop offset="1" stop-color="white" stop-opacity="0"/>
</linearGradient>
</defs>
</svg>
